<svg width="448" height="90" viewBox="0 0 448 90" fill="none" xmlns="http://www.w3.org/2000/svg">
<path d="M47.276 44.753C47.276 45.995 47.195 47.183 47.033 48.317H18.116C18.386 52.259 20.033 54.23 23.057 54.23C25.001 54.23 26.405 53.339 27.269 51.557H46.304C45.656 54.797 44.279 57.713 42.173 60.305C40.121 62.843 37.502 64.868 34.316 66.38C31.184 67.838 27.728 68.567 23.948 68.567C19.412 68.567 15.362 67.622 11.798 65.732C8.288 63.842 5.534 61.142 3.536 57.632C1.592 54.068 0.62 49.91 0.62 45.158C0.62 40.406 1.592 36.275 3.536 32.765C5.534 29.201 8.288 26.474 11.798 24.584C15.362 22.694 19.412 21.749 23.948 21.749C28.484 21.749 32.507 22.694 36.017 24.584C39.581 26.42 42.335 29.066 44.279 32.522C46.277 35.978 47.276 40.055 47.276 44.753ZM29.051 40.46C29.051 38.948 28.565 37.814 27.593 37.058C26.621 36.248 25.406 35.843 23.948 35.843C20.762 35.843 18.899 37.382 18.359 40.46H29.051ZM110.716 21.992C116.548 21.992 121.057 23.747 124.243 27.257C127.483 30.767 129.103 35.519 129.103 41.513V68H111.202V43.781C111.202 41.837 110.608 40.325 109.42 39.245C108.286 38.111 106.747 37.544 104.803 37.544C102.805 37.544 101.239 38.111 100.105 39.245C98.9711 40.325 98.4041 41.837 98.4041 43.781V68H80.5031V43.781C80.5031 41.837 79.9091 40.325 78.7211 39.245C77.5871 38.111 76.0481 37.544 74.1041 37.544C72.1061 37.544 70.5401 38.111 69.4061 39.245C68.2721 40.325 67.7051 41.837 67.7051 43.781V68H49.7231V22.316H67.7051V28.472C69.0011 26.528 70.7561 24.962 72.9701 23.774C75.2381 22.586 77.8841 21.992 80.9081 21.992C84.2021 21.992 87.1181 22.721 89.6561 24.179C92.1941 25.583 94.2191 27.581 95.7311 30.173C97.4051 27.797 99.5381 25.853 102.13 24.341C104.722 22.775 107.584 21.992 110.716 21.992ZM151.635 28.553C152.769 26.447 154.389 24.8 156.495 23.612C158.655 22.37 161.22 21.749 164.19 21.749C167.754 21.749 170.967 22.694 173.829 24.584C176.691 26.42 178.932 29.12 180.552 32.684C182.226 36.194 183.063 40.352 183.063 45.158C183.063 49.964 182.226 54.149 180.552 57.713C178.932 61.223 176.691 63.923 173.829 65.813C170.967 67.649 167.754 68.567 164.19 68.567C161.22 68.567 158.655 67.973 156.495 66.785C154.389 65.543 152.769 63.869 151.635 61.763V89.87H133.653V22.316H151.635V28.553ZM164.838 45.158C164.838 42.728 164.217 40.838 162.975 39.488C161.733 38.138 160.14 37.463 158.196 37.463C156.252 37.463 154.659 38.138 153.417 39.488C152.175 40.838 151.554 42.728 151.554 45.158C151.554 47.588 152.175 49.478 153.417 50.828C154.659 52.178 156.252 52.853 158.196 52.853C160.14 52.853 161.733 52.178 162.975 50.828C164.217 49.478 164.838 47.588 164.838 45.158ZM183.038 45.158C183.038 40.352 183.848 36.194 185.468 32.684C187.142 29.12 189.41 26.42 192.272 24.584C195.134 22.694 198.347 21.749 201.911 21.749C204.881 21.749 207.446 22.37 209.606 23.612C211.766 24.8 213.413 26.447 214.547 28.553V22.316H232.448V68H214.547V61.763C213.413 63.869 211.766 65.543 209.606 66.785C207.446 67.973 204.881 68.567 201.911 68.567C198.347 68.567 195.134 67.649 192.272 65.813C189.41 63.923 187.142 61.223 185.468 57.713C183.848 54.149 183.038 49.964 183.038 45.158ZM214.547 45.158C214.547 42.728 213.926 40.838 212.684 39.488C211.442 38.138 209.849 37.463 207.905 37.463C205.961 37.463 204.368 38.138 203.126 39.488C201.884 40.838 201.263 42.728 201.263 45.158C201.263 47.588 201.884 49.478 203.126 50.828C204.368 52.178 205.961 52.853 207.905 52.853C209.849 52.853 211.442 52.178 212.684 50.828C213.926 49.478 214.547 47.588 214.547 45.158ZM265.713 52.691V68H258.909C246.381 68 240.117 61.763 240.117 49.289V37.301H234.447V22.316H240.117V11.3H258.099V22.316H265.551V37.301H258.099V49.613C258.099 50.693 258.342 51.476 258.828 51.962C259.368 52.448 260.232 52.691 261.42 52.691H265.713ZM278.394 18.671C275.262 18.671 272.751 17.834 270.861 16.16C268.971 14.486 268.026 12.38 268.026 9.842C268.026 7.25 268.971 5.117 270.861 3.443C272.751 1.715 275.262 0.850995 278.394 0.850995C281.472 0.850995 283.956 1.715 285.846 3.443C287.736 5.117 288.681 7.25 288.681 9.842C288.681 12.38 287.736 14.486 285.846 16.16C283.956 17.834 281.472 18.671 278.394 18.671ZM287.304 22.316V68H269.322V22.316H287.304ZM336.411 44.753C336.411 45.995 336.33 47.183 336.168 48.317H307.251C307.521 52.259 309.168 54.23 312.192 54.23C314.136 54.23 315.54 53.339 316.404 51.557H335.439C334.791 54.797 333.414 57.713 331.308 60.305C329.256 62.843 326.637 64.868 323.451 66.38C320.319 67.838 316.863 68.567 313.083 68.567C308.547 68.567 304.497 67.622 300.933 65.732C297.423 63.842 294.669 61.142 292.671 57.632C290.727 54.068 289.755 49.91 289.755 45.158C289.755 40.406 290.727 36.275 292.671 32.765C294.669 29.201 297.423 26.474 300.933 24.584C304.497 22.694 308.547 21.749 313.083 21.749C317.619 21.749 321.642 22.694 325.152 24.584C328.716 26.42 331.47 29.066 333.414 32.522C335.412 35.978 336.411 40.055 336.411 44.753ZM318.186 40.46C318.186 38.948 317.7 37.814 316.728 37.058C315.756 36.248 314.541 35.843 313.083 35.843C309.897 35.843 308.034 37.382 307.494 40.46H318.186Z" fill="white"/>
<path d="M380.237 68.567C375.917 68.567 372.083 67.865 368.735 66.461C365.441 65.057 362.822 63.113 360.878 60.629C358.934 58.145 357.827 55.337 357.557 52.205H374.81C375.026 53.555 375.593 54.554 376.511 55.202C377.483 55.85 378.698 56.174 380.156 56.174C381.074 56.174 381.803 55.985 382.343 55.607C382.883 55.175 383.153 54.662 383.153 54.068C383.153 53.042 382.586 52.313 381.452 51.881C380.318 51.449 378.401 50.963 375.701 50.423C372.407 49.775 369.68 49.073 367.52 48.317C365.414 47.561 363.551 46.265 361.931 44.429C360.365 42.593 359.582 40.055 359.582 36.815C359.582 34.007 360.311 31.469 361.769 29.201C363.281 26.879 365.495 25.07 368.411 23.774C371.327 22.424 374.864 21.749 379.022 21.749C385.178 21.749 389.984 23.261 393.44 26.285C396.95 29.309 399.056 33.251 399.758 38.111H383.801C383.531 36.869 382.964 35.924 382.1 35.276C381.236 34.574 380.075 34.223 378.617 34.223C377.699 34.223 376.997 34.412 376.511 34.79C376.025 35.114 375.782 35.627 375.782 36.329C375.782 37.247 376.349 37.949 377.483 38.435C378.617 38.867 380.426 39.326 382.91 39.812C386.204 40.46 388.985 41.189 391.253 41.999C393.521 42.809 395.492 44.213 397.166 46.211C398.84 48.155 399.677 50.855 399.677 54.311C399.677 57.011 398.894 59.441 397.328 61.601C395.762 63.761 393.494 65.462 390.524 66.704C387.608 67.946 384.179 68.567 380.237 68.567ZM447.799 44.753C447.799 45.995 447.718 47.183 447.556 48.317H418.639C418.909 52.259 420.556 54.23 423.58 54.23C425.524 54.23 426.928 53.339 427.792 51.557H446.827C446.179 54.797 444.802 57.713 442.696 60.305C440.644 62.843 438.025 64.868 434.839 66.38C431.707 67.838 428.251 68.567 424.471 68.567C419.935 68.567 415.885 67.622 412.321 65.732C408.811 63.842 406.057 61.142 404.059 57.632C402.115 54.068 401.143 49.91 401.143 45.158C401.143 40.406 402.115 36.275 404.059 32.765C406.057 29.201 408.811 26.474 412.321 24.584C415.885 22.694 419.935 21.749 424.471 21.749C429.007 21.749 433.03 22.694 436.54 24.584C440.104 26.42 442.858 29.066 444.802 32.522C446.8 35.978 447.799 40.055 447.799 44.753ZM429.574 40.46C429.574 38.948 429.088 37.814 428.116 37.058C427.144 36.248 425.929 35.843 424.471 35.843C421.285 35.843 419.422 37.382 418.882 40.46H429.574Z" fill="#92F0A4"/>
<rect x="338" y="51" width="18" height="17" fill="#92F0A4"/>
</svg>
