<svg width="26" height="17" viewBox="0 0 26 17" fill="none" xmlns="http://www.w3.org/2000/svg">
<path d="M17.6289 13.332C18.2539 13.957 18.9961 14.2695 19.8555 14.2695C20.7148 14.2695 21.4375 13.957 22.0234 13.332C22.6484 12.707 22.9609 11.9648 22.9609 11.1055C22.9609 10.2461 22.6484 9.52344 22.0234 8.9375C21.4375 8.3125 20.7148 8 19.8555 8C18.9961 8 18.2539 8.3125 17.6289 8.9375C17.0039 9.52344 16.6914 10.2461 16.6914 11.1055C16.6914 11.9648 17.0039 12.707 17.6289 13.332ZM9.07422 12.1016L5.5 12.043V10.168H9.07422C8.60547 8.72266 7.60938 8 6.08594 8C5.22656 8 4.48438 8.3125 3.85938 8.9375C3.27344 9.52344 2.98047 10.2461 2.98047 11.1055C2.98047 11.9648 3.27344 12.707 3.85938 13.332C4.48438 13.957 5.22656 14.2695 6.08594 14.2695C6.71094 14.2695 7.31641 14.0547 7.90234 13.625C8.52734 13.1953 8.91797 12.6875 9.07422 12.1016ZM19.8555 5.48047C21.418 5.48047 22.7461 6.02734 23.8398 7.12109C24.9336 8.21484 25.4805 9.54297 25.4805 11.1055C25.4805 12.668 24.9336 13.9961 23.8398 15.0898C22.7461 16.1836 21.418 16.7305 19.8555 16.7305C18.293 16.7305 16.9648 16.1836 15.8711 15.0898C14.7773 13.9961 14.2305 12.668 14.2305 11.1055C14.2305 11.0273 14.2305 10.9297 14.2305 10.8125C14.2695 10.6953 14.2891 10.5977 14.2891 10.5195L11.6523 12.1016C11.418 13.3906 10.7539 14.4844 9.66016 15.3828C8.60547 16.2812 7.43359 16.7305 6.14453 16.7305C4.58203 16.7305 3.25391 16.1836 2.16016 15.0898C1.06641 13.9961 0.519531 12.668 0.519531 11.1055C0.519531 9.54297 1.04688 8.21484 2.10156 7.12109C3.19531 6.02734 4.52344 5.48047 6.08594 5.48047H16.2227L13.7617 3.01953H9.25V0.5H14.7578L19.7969 5.53906C19.7969 5.5 19.8164 5.48047 19.8555 5.48047Z" fill="white"/>
</svg>
