<svg width="22" height="22" viewBox="0 0 22 22" fill="none" xmlns="http://www.w3.org/2000/svg">
<path d="M4.37891 14.9258C6.68359 13.9883 8.89062 13.5195 11 13.5195C13.1094 13.5195 15.2969 13.9883 17.5625 14.9258C19.8672 15.8242 21.0195 17.0156 21.0195 18.5V21.0195H0.980469V18.5C0.980469 17.0156 2.11328 15.8242 4.37891 14.9258ZM14.5156 9.53516C13.5391 10.5117 12.3672 11 11 11C9.63281 11 8.46094 10.5117 7.48438 9.53516C6.50781 8.55859 6.01953 7.38672 6.01953 6.01953C6.01953 4.65234 6.50781 3.48047 7.48438 2.50391C8.46094 1.48828 9.63281 0.980469 11 0.980469C12.3672 0.980469 13.5391 1.48828 14.5156 2.50391C15.4922 3.48047 15.9805 4.65234 15.9805 6.01953C15.9805 7.38672 15.4922 8.55859 14.5156 9.53516Z" fill="#F4F5F8"/>
</svg>
