<svg width="26" height="26" viewBox="0 0 26 26" fill="none" xmlns="http://www.w3.org/2000/svg">
<path d="M14.2891 14.2891H25.4805C25.207 17.2578 24.0156 19.7969 21.9062 21.9062C19.7969 24.0156 17.2578 25.207 14.2891 25.4805V14.2891ZM14.2891 0.519531C17.2578 0.792969 19.7969 1.98438 21.9062 4.09375C24.0156 6.20312 25.207 8.74219 25.4805 11.7109H14.2891V0.519531ZM11.7695 0.519531V25.4805C8.60547 25.168 5.92969 23.8203 3.74219 21.4375C1.59375 19.0547 0.519531 16.2422 0.519531 13C0.519531 9.75781 1.59375 6.94531 3.74219 4.5625C5.92969 2.17969 8.60547 0.832031 11.7695 0.519531Z" fill="#F4F5F8"/>
</svg>
